<svg xmlns="http://www.w3.org/2000/svg" viewBox="358 264 168.504 49"><defs><style>.a{fill:#707070;font-size:20px;font-family:GothamBold, Gotham;}.b{fill:#4493ee;}.c{fill:#fff;}</style></defs><text class="a" transform="translate(409.504 297)"><tspan x="0" y="0">IDown</tspan><tspan class="b" y="0">Tube</tspan></text><circle class="b" cx="24.5" cy="24.5" r="24.5" transform="translate(358 264)"/><g transform="translate(9.895 -2.675)"><g transform="translate(365 279)"><g transform="translate(0)"><path class="c" d="M164.492,120.468,149.55,109.8a2.131,2.131,0,0,0-3.369,1.735v21.346a2.131,2.131,0,0,0,3.369,1.735l14.942-10.672a2.123,2.123,0,0,0,0-3.47Z" transform="translate(-146.181 -109.365)"/></g></g><g transform="translate(369.222 288.499)"><path class="b" d="M23.99,25.859H22.007V22.841a.548.548,0,0,0-.541-.541h-.631a.548.548,0,0,0-.541.541v3.018H18.313c-.315,0-.405.18-.225.405l2.7,3.244a.556.556,0,0,0,.36.18.41.41,0,0,0,.36-.18l2.7-3.244C24.35,26.039,24.26,25.859,23.99,25.859Z" transform="translate(-17.996 -22.3)"/></g></g></svg>